#!OML:ASF X:\für Bonn\!DataBase\2005_08_11_Bastian_Final\c3d\Bastian.ASF
:FULLY-SPECIFIED
:DEGREES
496
root -0.158488 1.14448 25.7259 -996.494 -2.63795 -903.979
lowerback 27.3141 -6.48514 0.792562
upperback 23.6372 -1.24171 -3.72847
thorax 11.3342 3.71852 -3.48163
lowerneck 3.92837 -5.35745 -5.27285
upperneck 26.3446 -3.88761 -1.44305
head 7.59552 -1.0801 0.400723
rclavicle 8.34896e-015 -2.70347e-014
rhumerus -35.3227 17.5371 -71.729
rradius 51.1622
rwrist 28.3863
rhand -26.4827 6.48039
rfingers 7.12502
rthumb 0.0795081 -23.4993
lclavicle 8.34896e-015 -2.70347e-014
lhumerus -222.798 -171.987 255.157
lradius 51.8667
lwrist -5.74265
lhand -22.9943 -21.2192
lfingers 7.12502
lthumb 3.44856 8.73261
rfemur -9.85148 1.44938 23.2812
rtibia 38.5967
rfoot 8.46916 -11.258
rtoes -10.3563
lfemur -2.62012 4.07289 -18.9188
ltibia 26.4341
lfoot 9.45283 7.84972
ltoes 1.88385
497
root -0.159298 1.13952 25.7322 -996.506 -2.61202 -903.962
lowerback 26.855 -6.38812 0.876118
upperback 23.4925 -1.25837 -3.63934
thorax 11.357 3.63001 -3.44653
lowerneck 3.92159 -5.4005 -5.21219
upperneck 26.5582 -3.89014 -1.52322
head 7.66638 -1.06348 0.365941
rclavicle 1.82882e-014 6.36111e-015
rhumerus -35.2156 17.8518 -71.7629
rradius 50.79
rwrist 27.9871
rhand -26.1469 6.54516
rfingers 7.12502
rthumb 0.403881 -23.4342
lclavicle 1.82882e-014 6.36111e-015
lhumerus -222.861 -171.884 255.211
lradius 51.8979
lwrist -5.84604
lhand -22.7553 -20.7945
lfingers 7.12502
lthumb 3.67945 9.15345
rfemur -9.76347 1.64553 23.3321
rtibia 38.4067
rfoot 8.24833 -11.3397
rtoes -10.044
lfemur -2.44463 3.88029 -18.9566
ltibia 26.0845
lfoot 9.22012 7.66785
ltoes 1.79709
498
root -0.160579 1.13506 25.7388 -996.504 -2.59004 -903.952
lowerback 26.358 -6.29207 0.943405
upperback 23.3653 -1.27549 -3.55153
thorax 11.4213 3.54292 -3.40287
lowerneck 3.91731 -5.43612 -5.16445
upperneck 26.7068 -3.89918 -1.5911
head 7.71545 -1.05547 0.336394
rclavicle -1.07344e-014 7.95139e-015
rhumerus -35.0942 18.4077 -71.8244
rradius 50.4322
rwrist 27.4123
rhand -25.904 6.53897
rfingers 7.12502
rthumb 0.638469 -23.4398
lclavicle -1.07344e-014 7.95139e-015
lhumerus -222.866 -171.837 255.261
lradius 51.9106
lwrist -5.97644
lhand -22.4924 -20.3156
lfingers 7.12502
lthumb 3.93326 9.62782
rfemur -9.68567 1.87162 23.3782
rtibia 38.2148
rfoot 8.02241 -11.4077
rtoes -9.68783
lfemur -2.30053 3.72081 -18.9971
ltibia 25.7701
lfoot 8.98772 7.45706
ltoes 1.56042
499
root -0.162272 1.13045 25.7464 -996.493 -2.56581 -903.943
lowerback 25.8839 -6.1885 1.017
upperback 23.212 -1.2874 -3.46184
thorax 11.4467 3.4544 -3.36372
lowerneck 3.92618 -5.47358 -5.08377
upperneck 26.8841 -3.89911 -1.6808
head 7.77045 -1.03794 0.295172
rclavicle -4.77083e-015 1.59028e-015
rhumerus -35.0387 19.107 -71.9184
rradius 50.1143
rwrist 26.7098
rhand -25.6273 6.43717
rfingers 7.12502
rthumb 0.90572 -23.5406
lclavicle -4.77083e-015 1.59028e-015
lhumerus -222.906 -171.735 255.3
lradius 51.9355
lwrist -6.09249
lhand -22.2268 -19.8229
lfingers 7.12502
lthumb 4.18979 10.1156
rfemur -9.61739 2.10198 23.4262
rtibia 38.0215
rfoot 7.81227 -11.4881
rtoes -9.28248
lfemur -2.18862 3.55038 -19.0383
ltibia 25.4926
lfoot 8.77161 7.23469
ltoes 1.20935
500
root -0.164842 1.12607 25.7538 -996.503 -2.54369 -903.935
lowerback 25.4118 -6.09945 1.08826
upperback 23.0833 -1.30567 -3.3889
thorax 11.5026 3.37286 -3.33837
lowerneck 3.90511 -5.50368 -5.05635
upperneck 27.0442 -3.90884 -1.70371
head 7.82809 -1.02884 0.283574
rclavicle 0 -1.98785e-014
rhumerus -34.9571 19.9601 -72.0295
rradius 49.8205
rwrist 25.8976
rhand -25.3826 6.29188
rfingers 7.12502
rthumb 1.14207 -23.6848
lclavicle 0 -1.98785e-014
lhumerus -222.885 -171.706 255.303
lradius 51.939
lwrist -6.25508
lhand -21.9036 -19.3551
lfingers 7.12502
lthumb 4.50186 10.577
rfemur -9.53372 2.29542 23.4686
rtibia 37.8245
rfoot 7.64304 -11.4911
rtoes -9.09426
lfemur -2.07149 3.4103 -19.0793
ltibia 25.2511
lfoot 8.53984 7.02429
ltoes 1.10203
